HIERARCHY
ROOT hip
{
	OFFSET 0.000000 0.000000 0.000000 
	CHANNELS 6 Xposition Yposition Zposition Xrotation Zrotation Yrotation
	JOINT abdomen
	{
		OFFSET 0.000000 3.402643 0.000000 
		CHANNELS 3 Xrotation Zrotation Yrotation
		JOINT chest
		{
			OFFSET 0.000000 8.438565 -0.680529 
			CHANNELS 3 Xrotation Zrotation Yrotation
			JOINT neck
			{
				OFFSET 0.000000 10.207942 -0.272212 
				CHANNELS 3 Xrotation Zrotation Yrotation
				JOINT head
				{
					OFFSET 0.000000 3.130431 0.000000 
					CHANNELS 3 Xrotation Zrotation Yrotation
					End Site
					{
						OFFSET 0.000000 3.130435 0.000000 
					}
				}
			}
			JOINT lCollar
			{
				OFFSET 3.470700 6.669187 -0.816635 
				CHANNELS 3 Yrotation Zrotation Xrotation
				JOINT lShldr
				{
					OFFSET 3.198488 0.000000 0.000000 
					CHANNELS 3 Zrotation Yrotation Xrotation
					JOINT lForeArm
					{
						OFFSET 10.139888 0.000000 0.000000 
						CHANNELS 3 Yrotation Zrotation Xrotation
						JOINT lHand
						{
							OFFSET 8.370511 0.000000 0.000000 
							CHANNELS 3 Zrotation Yrotation Xrotation
							End Site
							{
								OFFSET 4.083176 0.000000 0.000000 
							}
						}
					}
				}
			}
			JOINT rCollar
			{
				OFFSET -3.470700 6.669187 -0.816635 
				CHANNELS 3 Yrotation Zrotation Xrotation
				JOINT rShldr
				{
					OFFSET -3.198488 0.000000 0.000000 
					CHANNELS 3 Zrotation Yrotation Xrotation
					JOINT rForeArm
					{
						OFFSET -10.139888 0.000000 0.000000 
						CHANNELS 3 Yrotation Zrotation Xrotation
						JOINT rHand
						{
							OFFSET -8.370511 0.000000 0.000000 
							CHANNELS 3 Zrotation Yrotation Xrotation
							End Site
							{
								OFFSET -4.083176 0.000000 0.000000 
							}
						}
					}
				}
			}
		}
	}
	JOINT lThigh
	{
		OFFSET 5.308129 -1.633274 1.361059 
		CHANNELS 3 Xrotation Zrotation Yrotation
		JOINT lShin
		{
			OFFSET -2.041588 -20.007561 0.000000 
			CHANNELS 3 Xrotation Zrotation Yrotation
			JOINT lFoot
			{
				OFFSET 0.000000 -19.190928 -1.224953 
				CHANNELS 3 Xrotation Yrotation Zrotation
				End Site
				{
					OFFSET 0.000000 -2.449906 4.627600 
				}
			}
		}
	}
	JOINT rThigh
	{
		OFFSET -5.308129 -1.633274 1.361059 
		CHANNELS 3 Xrotation Zrotation Yrotation
		JOINT rShin
		{
			OFFSET 2.041588 -20.007561 0.000000 
			CHANNELS 3 Xrotation Zrotation Yrotation
			JOINT rFoot
			{
				OFFSET 0.000000 -19.190928 -1.224953 
				CHANNELS 3 Xrotation Yrotation Zrotation
				End Site
				{
					OFFSET 0.000000 -2.449906 4.627600 
				}
			}
		}
	}
}
MOTION
Frames: 8
Frame Time: 0.033333
-0.029506 43.583687 0.372628 0.214981 -2.050767 88.390404 0.000000 0.000000 0.000000 -4.856730 -2.082347 6.065451 10.187736 -1.178703 -0.127422 -7.722055 -2.577415 -16.394123 10.583388 27.728308 19.181438 -66.275887 -78.925713 -27.922749 -28.652220 -20.467535 17.807833 3.661035 4.633181 49.437351 -18.477463 -29.867308 14.293013 -26.132021 67.535675 -23.364271 18.546898 -17.216969 -22.263042 17.994904 -1.009980 -11.712752 2.992693 8.312672 20.000727 61.338837 7.605161 -0.955889 4.436305 -3.718392 -20.007843 -3.709186 1.629864 1.768579 17.357208 1.815103 0.926955 -8.322683 -9.342939 19.466639 
-0.110099 43.626057 0.659604 -0.351892 -2.480422 89.302322 0.000000 0.000000 0.000000 -4.942787 -1.352376 6.230195 9.831107 -2.127650 -0.190063 -7.719559 -2.380604 -16.051300 11.975777 27.512148 18.518900 -70.239334 -78.831909 -24.774082 -28.869535 -21.611618 18.273048 3.552279 4.508850 49.483814 -17.812130 -30.000000 14.339866 -27.089275 67.013611 -23.469702 17.201420 -16.074116 -24.569380 17.742952 -1.293168 -11.791606 -2.148742 9.702894 20.418758 66.897400 9.713363 -0.686126 6.564244 -2.003734 -19.078951 -2.036103 2.512406 1.961891 16.176592 1.841701 0.855801 -8.865191 -10.534503 19.197205 
-0.228127 43.704502 0.848076 -0.361764 -2.812444 89.900543 0.000000 0.000000 0.000000 -4.922601 -0.982691 6.305323 9.614960 -3.212146 -0.271239 -7.648755 -2.175176 -15.381793 13.670530 27.028038 17.766994 -72.920631 -78.428825 -22.570240 -29.053631 -22.862612 18.591913 3.354447 4.408251 49.496204 -16.761909 -30.000000 14.641459 -28.685890 66.569176 -24.440750 15.821641 -14.627962 -26.667181 17.283892 -1.496483 -11.895737 -6.708750 10.096046 20.336155 70.182007 10.716151 -0.553220 7.176584 0.291146 -18.415579 -0.272981 2.761036 1.986934 14.784132 1.823087 0.747985 -9.308412 -11.066829 19.008764 
-0.380112 43.816074 0.953060 0.048900 -3.105468 90.299561 0.000000 0.000000 0.000000 -4.863903 -0.914664 6.318055 9.480809 -4.345193 -0.357941 -7.596633 -1.856871 -14.529278 15.488176 26.382318 17.014660 -73.710236 -77.844910 -21.805964 -29.193218 -24.156256 19.143349 2.946973 4.392351 49.412201 -15.448126 -30.000000 15.139179 -30.446051 66.194588 -25.734404 14.549495 -13.117953 -28.322416 16.831318 -1.611872 -11.979477 -10.681611 9.683694 19.923590 71.025337 10.694929 -0.595105 7.005667 2.362334 -17.831259 1.570200 2.477282 1.859758 13.214325 1.725319 0.594589 -9.779455 -10.909447 19.044609 
-0.562742 43.939793 0.995774 0.714146 -3.398174 90.611458 0.000000 0.000000 0.000000 -4.756647 -1.041324 6.287802 9.330715 -5.498728 -0.441093 -7.651517 -1.406311 -13.574512 17.214100 25.668390 16.353228 -72.473328 -77.234291 -22.575287 -29.455950 -25.409269 19.894371 2.474664 4.480208 49.234116 -14.052365 -30.000000 15.716560 -32.063934 65.846413 -26.921185 13.432349 -11.752563 -29.573517 16.546625 -1.789268 -12.031116 -14.111357 8.769588 19.305908 69.575203 9.836285 -0.731527 6.622541 3.782000 -17.667063 3.407382 1.864945 1.634148 11.596983 1.608843 0.439681 -10.229128 -10.378559 19.195614 
-0.763549 44.044666 1.002169 1.330959 -3.739228 90.869766 0.000000 0.000000 0.000000 -4.678645 -1.129039 6.274017 9.132440 -6.531775 -0.511475 -7.834290 -0.936655 -12.799881 18.642681 25.060778 15.829578 -70.154190 -76.654373 -24.162786 -29.995745 -26.501495 20.239189 2.197316 4.717352 49.053333 -12.874058 -30.000000 16.211245 -33.480145 65.591949 -28.091204 12.490622 -10.534810 -30.262262 16.445293 -1.930125 -12.048950 -16.844496 7.811372 18.700014 66.153358 8.519024 -0.927065 6.163463 4.402280 -17.906015 5.015810 1.278581 1.421201 10.186262 1.549738 0.332412 -10.692595 -10.115527 19.156700 
-0.971956 44.119041 0.986013 1.752533 -4.099650 91.095001 0.000000 0.000000 0.000000 -4.600429 -1.080493 6.278329 8.892085 -7.331388 -0.569134 -8.135364 -0.476944 -12.385861 19.648905 24.704500 15.461313 -67.686119 -76.140755 -25.845451 -30.838249 -27.201555 19.786621 2.039911 4.903282 48.933277 -12.107119 -30.000000 16.531811 -34.710617 65.481369 -29.342503 11.759481 -9.526258 -30.427130 16.498486 -2.045288 -12.035865 -18.795218 6.960042 18.228256 61.041245 6.939084 -1.104460 5.566034 4.398071 -18.082888 6.519788 0.849617 1.260767 8.935199 1.531889 0.217502 -11.114767 -10.114439 19.493040 
-1.185971 44.157722 0.964360 1.890774 -4.567835 91.265083 0.000000 0.000000 0.000000 -4.648923 -0.827348 6.336800 8.658364 -7.941563 -0.611361 -8.486368 -0.121348 -12.101364 20.380102 24.585110 15.148822 -65.485405 -75.752022 -27.347830 -31.732748 -27.508266 18.726582 1.867471 4.863264 48.856464 -11.551747 -30.000000 16.783182 -35.679070 65.450005 -30.459949 11.190541 -8.751878 -30.393854 16.511299 -2.122965 -12.025372 -20.052084 6.332810 17.875500 54.266083 5.053286 -1.241661 4.841195 4.173724 -18.221512 7.939214 0.723189 1.200898 7.725421 1.480069 0.123473 -11.511881 -10.042910 20.303715 
